<svg xmlns="http://www.w3.org/2000/svg" width="18" height="18" viewBox="0 0 18 18">
  <path fill="currentColor" fill-rule="evenodd" d="M17.4571834,4.12191148 C17.4571834,3.72200475 17.1273273,3.39219246 16.7272451,3.39219246 L14.0253635,3.39219246 L14.0253635,3.17458389 C14.0253635,2.77450171 13.6953319,2.44464555 13.2954251,2.44464555 C12.8953429,2.44464555 12.5654868,2.77450171 12.5654868,3.17458389 L12.5654868,3.39219246 L5.11569421,3.39219246 L5.11569421,3.17458389 C5.11569421,2.77450171 4.78583805,2.44464555 4.38575587,2.44464555 C3.98567368,2.44464555 3.65581753,2.77450171 3.65581753,3.17458389 L3.65581753,3.39219246 L0.992492227,3.39219246 C0.592410043,3.39219246 0.262553884,3.72200475 0.262553884,4.12191148 L0.262553884,16.9512545 C0.262553884,18.4145087 1.44858855,19.6007188 2.91184275,19.6007188 L14.8428102,19.6007188 C16.3062837,19.6007188 17.4923184,18.4145087 17.4923184,16.9512545 L17.4571834,4.12191148 Z M1.68725176,4.85184982 L3.65941436,4.85184982 L3.65941436,5.10801471 C3.65941436,5.50809689 3.98927052,5.83790919 4.38917725,5.83790919 C4.75412449,5.83790919 5.0841561,5.50809689 5.11911559,5.14314966 L5.11911559,4.85184982 L12.5654868,4.85184982 L12.5654868,5.10801471 C12.5654868,5.50809689 12.8953429,5.83790919 13.2954251,5.83790919 C13.6953319,5.83790919 14.0253635,5.50809689 14.0253635,5.14314966 L14.0253635,4.85184982 L15.9973506,4.85184982 L15.9973506,7.62759817 L1.68725176,7.62759817 L1.68725176,4.85184982 Z M4.47231419,10.5401798 L4.47231419,10.5401798 C5.17505913,10.5401798 5.74474647,11.1098671 5.74474647,11.8126121 L5.74474647,11.8126121 C5.74474647,12.515357 5.17505913,13.0850443 4.47231419,13.0850443 L4.47231419,13.0850443 C3.76956925,13.0850443 3.19988192,12.515357 3.19988192,11.8126121 L3.19988192,11.8126121 C3.19988192,11.1098671 3.76956925,10.5401798 4.47231419,10.5401798 Z M4.47231419,14.1908666 L4.47231419,14.1908666 C5.17505913,14.1908666 5.74474647,14.7605539 5.74474647,15.4632989 L5.74474647,15.4632989 C5.74474647,16.1660438 5.17505913,16.7357311 4.47231419,16.7357311 L4.47231419,16.7357311 C3.76956925,16.7357311 3.19988192,16.1660438 3.19988192,15.4632989 L3.19988192,15.4632989 C3.19988192,14.7605539 3.76956925,14.1908666 4.47231419,14.1908666 Z M8.87743613,10.5401798 L8.87743613,10.5401798 C9.58018107,10.5401798 10.1498684,11.1098671 10.1498684,11.8126121 L10.1498684,11.8126121 C10.1498684,12.515357 9.58018107,13.0850443 8.87743613,13.0850443 L8.87743613,13.0850443 C8.17469119,13.0850443 7.60500386,12.515357 7.60500386,11.8126121 L7.60500386,11.8126121 C7.60500386,11.1098671 8.17469119,10.5401798 8.87743613,10.5401798 Z M8.87743613,14.1908666 L8.87743613,14.1908666 C9.58018107,14.1908666 10.1498684,14.7605539 10.1498684,15.4632989 L10.1498684,15.4632989 C10.1498684,16.1660438 9.58018107,16.7357311 8.87743613,16.7357311 L8.87743613,16.7357311 C8.17469119,16.7357311 7.60500386,16.1660438 7.60500386,15.4632989 L7.60500386,15.4632989 C7.60500386,14.7605539 8.17469119,14.1908666 8.87743613,14.1908666 Z M13.2466343,10.5401798 L13.2466343,10.5401798 C13.9493793,10.5401798 14.5190666,11.1098671 14.5190666,11.8126121 L14.5190666,11.8126121 C14.5190666,12.515357 13.9493793,13.0850443 13.2466343,13.0850443 L13.2466343,13.0850443 C12.5438894,13.0850443 11.9742021,12.515357 11.9742021,11.8126121 L11.9742021,11.8126121 C11.9742021,11.1098671 12.5438894,10.5401798 13.2466343,10.5401798 Z M13.2466343,14.1908666 L13.2466343,14.1908666 C13.9493793,14.1908666 14.5190666,14.7605539 14.5190666,15.4632989 L14.5190666,15.4632989 C14.5190666,16.1660438 13.9493793,16.7357311 13.2466343,16.7357311 L13.2466343,16.7357311 C12.5438894,16.7357311 11.9742021,16.1660438 11.9742021,15.4632989 L11.9742021,15.4632989 C11.9742021,14.7605539 12.5438894,14.1908666 13.2466343,14.1908666 Z M16.0324856,16.8004505 C16.0324856,17.5583302 15.4183916,18.1760209 14.6569152,18.1760209 L3.09795707,18.1760209 C2.339902,18.1760209 1.72238671,17.561927 1.72238671,16.8004505 L1.72238671,9.04874308 L16.0324856,9.04874308 L16.0324856,16.8004505 Z" transform="translate(-.03 -2.37)"/>
</svg>
