<svg xmlns="http://www.w3.org/2000/svg" width="14" height="18" viewBox="0 0 14 18">
  <path fill="currentColor" fill-rule="evenodd" d="M12.2361261,4.05404019 C15.0214893,4.05404019 17.2875646,6.3201155 17.2875646,9.10547869 C17.2875646,12.3121319 13.4424096,16.6816262 12.2361261,17.9727738 C11.0298426,16.6816262 7.18468761,12.3151627 7.18468761,9.10547869 C7.18468761,6.3201155 9.45076292,4.05404019 12.2361261,4.05404019 Z M12.2361261,19.7554818 C12.3740766,19.7554818 12.5120271,19.7026726 12.6176455,19.598132 C12.8655253,19.3491744 18.7025563,13.460412 18.7025563,8.97809811 C18.7025563,5.41186185 15.8023624,2.5116679 12.2361261,2.5116679 C8.66988986,2.5116679 5.76969591,5.41186185 5.76969591,8.97809811 C5.76969591,13.460412 11.6067269,19.3491744 11.8546067,19.598132 C11.9602251,19.7026726 12.0981756,19.7554818 12.2361261,19.7554818 L12.2361261,19.7554818 Z M10.0806494,8.97809811 C10.0806494,7.78935269 11.0473807,6.82262137 12.2361261,6.82262137 C13.4248715,6.82262137 14.3916028,7.78935269 14.3916028,8.97809811 C14.3916028,10.1668435 13.4248715,11.1335748 12.2361261,11.1335748 C11.0473807,11.1335748 10.0806494,10.1668435 10.0806494,8.97809811 Z M15.6424787,8.97809811 C15.6424787,7.10006237 14.1141619,5.5717455 12.2361261,5.5717455 C10.3580904,5.5717455 8.82977351,7.10006237 8.82977351,8.97809811 C8.82977351,10.8561338 10.3580904,12.3844507 12.2361261,12.3844507 C14.1141619,12.3844507 15.6424787,10.8561338 15.6424787,8.97809811 L15.6424787,8.97809811 Z" transform="translate(-5 -1.871)"/>
</svg>
