<svg xmlns="http://www.w3.org/2000/svg" width="26" height="26" viewBox="0 0 26 26">
  <g fill="none" fill-rule="evenodd" transform="translate(.343 .372)">
    <circle cx="12.529" cy="12.708" r="12.363" fill="currentColor"/>
    <path fill="#FFF" d="M6.49262071,18.8933229 L18.5649681,18.8933229 C18.8211883,18.8933229 19.023685,18.6906929 19.023685,18.4344727 C19.023685,16.0349072 17.0720384,14.0728625 14.6615415,14.0728625 L10.3956473,14.0728625 C7.99608181,14.0728625 6.03390378,16.0245091 6.03390378,18.4344727 C6.03390378,18.6906929 6.23653375,18.8933229 6.49262071,18.8933229 Z M10.7370689,15.308367 L14.3201839,15.308367 C15.789373,15.308367 16.9987863,16.33207 17.1867879,17.6578184 L7.87080092,17.6578184 C8.05891446,16.3402504 9.26832773,15.308367 10.7370689,15.308367 Z M12.507265,13.4645726 C14.427184,13.4645726 15.9842354,11.9075212 15.9842354,9.98813542 C15.9842354,8.06874964 14.427184,6.52209636 12.507265,6.52209636 C10.5877459,6.52209636 9.03069447,8.07914776 9.03069447,9.98813542 C9.03069447,11.8971231 10.5877459,13.4645726 12.507265,13.4645726 Z M12.5072943,7.80411373 C13.7087963,7.80411373 14.691771,8.78697468 14.691771,9.98813542 C14.691771,11.1892962 13.7087963,12.1721571 12.5072943,12.1721571 C11.3061335,12.1721571 10.3231588,11.1892962 10.3231588,9.98813542 C10.3231588,8.78697468 11.3061335,7.80411373 12.5072943,7.80411373 Z"/>
  </g>
</svg>
