<svg xmlns="http://www.w3.org/2000/svg" width="22" height="23" viewBox="0 0 22 23">
  <path fill="currentColor" fill-rule="evenodd" d="M15.0313064,13.1710272 L11.9383112,13.1710272 L11.9383112,8.86520066 C11.9383112,8.34887413 11.5162704,7.92688944 11,7.92688944 C10.4837296,7.92688944 10.0616888,8.34887413 10.0616888,8.86520066 L10.0616888,14.1093384 C10.0616888,14.6256088 10.4837296,15.0476496 11,15.0476496 L15.0313064,15.0476496 C15.5478013,15.0476496 15.969786,14.6256088 15.969786,14.1093384 C15.969786,13.593068 15.5431992,13.1710272 15.0313064,13.1710272 Z M11,23.2820476 C5.94460204,23.2820476 1.82729082,19.1647364 1.82729082,14.1093384 C1.82729082,9.05394046 5.94460204,4.93662924 11,4.93662924 C16.055398,4.93662924 20.1727092,9.05394046 20.1727092,14.1093384 C20.1727092,19.1647364 16.055398,23.2820476 11,23.2820476 Z M11,3.10933842 C4.91643878,3.10933842 0,8.02577719 0,14.1093384 C0,20.1928996 4.91643878,25.1093384 11,25.1093384 C17.0835612,25.1093384 22,20.1928996 22,14.1093384 C22,8.02577719 17.0835612,3.10933842 11,3.10933842 Z" transform="translate(0 -2.551)"/>
</svg>
