<svg xmlns="http://www.w3.org/2000/svg" xmlns:xlink="http://www.w3.org/1999/xlink" width="200" height="43" viewBox="0 0 200 43">
  <defs>
    <path id="whalemart-logo-with-name-a" d="M17.4864861,37.6543747 L17.4864861,32.6790111 C17.4864861,32.2495545 17.1383428,31.9014111 16.7088861,31.9014111 L16.7088861,31.9014111 L16.0807841,31.9014111 C12.0493357,31.9014111 10.8703006,29.9350419 9.28835658,26.7489866 C7.83205975,23.8159863 8.43514017,23.9230278 6.61098122,23.4199313 C5.75781854,23.1846321 4.6784452,22.9495155 3.37286121,22.7145816 L3.37286121,22.7145816 C3.30469049,22.7023146 3.23556255,22.6961445 3.16629693,22.6961445 C2.52213179,22.6961445 1.99993276,23.2183435 1.99993276,23.8625087 L1.99989693,23.8625087 L1.99989693,33.7628897 C0.781252477,32.1389631 0.0592253017,30.1209881 0.0592253017,27.9343747 L0.0592253017,12.7047743 L0.0592253017,12.7047743 C0.0592253017,12.1679535 0.494404525,11.7327743 1.0312253,11.7327743 L1.0312253,11.7327743 L21.1303747,11.7327743 L21.1303747,11.7327743 C26.4985825,11.7327743 30.8503747,16.0845665 30.8503747,21.4527743 L30.8503747,36.6823747 C30.8503747,37.2191955 30.4151955,37.6543747 29.8783747,37.6543747 L17.4864861,37.6543747 Z M6.09661956,20.3160354 C7.21968026,20.3160354 8.13010085,19.4056148 8.13010085,18.2825541 C8.13010085,17.1594934 7.21968026,16.2490728 6.09661956,16.2490728 C4.97355885,16.2490728 4.06313827,17.1594934 4.06313827,18.2825541 C4.06313827,19.4056148 4.97355885,20.3160354 6.09661956,20.3160354 Z"/>
    <path id="whalemart-logo-with-name-b" d="M1.0312253,12.8408595 L21.1303747,12.8408595 L21.1303747,12.8408595 C26.4985825,12.8408595 30.8503747,17.1926517 30.8503747,22.5608595 L30.8503747,36.6823747 L30.8503747,36.6823747 C30.8503747,37.2191955 30.4151955,37.6543747 29.8783747,37.6543747 L9.7792253,37.6543747 L9.7792253,37.6543747 C4.41101753,37.6543747 0.0592253017,33.3025825 0.0592253017,27.9343747 L0.0592253017,13.8128595 L0.0592253017,13.8128595 C0.0592253017,13.2760387 0.494404525,12.8408595 1.0312253,12.8408595 Z"/>
  </defs>
  <g fill="none" fill-rule="evenodd" transform="translate(.333 -1)">
    <g transform="translate(.133 .81)">
      <path fill="#EA3546" stroke="#EA3546" stroke-width="1.944" d="M18.5498193,33.9325512 L18.5498193,37.9887539 L18.5498193,37.9887539 C18.5498193,39.9619218 20.149388,41.5614905 22.122556,41.5614905 L25.3064926,41.5614905 L25.3064926,41.5614905 C25.5212209,41.5614905 25.6952926,41.3874188 25.6952926,41.1726905 L25.6952926,37.6543747 L25.6952926,37.6543747 C25.6952926,35.5517647 23.9907904,33.8472625 21.8881804,33.8472625 C21.8552794,33.8472625 21.8223797,33.847689 21.7894898,33.8485419 L18.5498193,33.9325512 Z"/>
      <use fill="#EA3546" xlink:href="#whalemart-logo-with-name-a"/>
      <path stroke="#EA3546" stroke-width="1.944" d="M18.4584861,36.6823747 L29.8783747,36.6823747 L29.8783747,21.4527743 C29.8783747,16.6213873 25.9617617,12.7047743 21.1303747,12.7047743 L1.0312253,12.7047743 L1.0312253,23.7428308 C1.09330489,22.6175163 2.02547182,21.7241445 3.16629693,21.7241445 C3.29328567,21.7241445 3.420022,21.7354565 3.54500339,21.7579463 C4.87745201,21.9977144 5.98447826,22.2388545 6.86940704,22.4829147 C7.27002195,22.5934028 7.47086673,22.6525028 7.6663208,22.7213898 C8.30709663,22.9472287 8.68729081,23.248202 8.99856202,23.8032476 C9.10971167,24.001445 9.78190343,25.5573472 10.1589479,26.3167195 C12.0018417,30.028331 13.0108506,30.9294111 16.0807841,30.9294111 L16.7088861,30.9294111 C17.6751635,30.9294111 18.4584861,31.7127337 18.4584861,32.6790111 L18.4584861,36.6823747 Z M6.09661956,21.2880354 C4.43673807,21.2880354 3.09113827,19.9424356 3.09113827,18.2825541 C3.09113827,16.6226726 4.43673807,15.2770728 6.09661956,15.2770728 C7.75650104,15.2770728 9.10210085,16.6226726 9.10210085,18.2825541 C9.10210085,19.9424356 7.75650104,21.2880354 6.09661956,21.2880354 Z"/>
      <path fill="#EA3546" d="M20.4787469,8.72228943 C20.4787469,12.2424846 22.9873817,15.187353 26.3107469,15.8647398 L26.3107469,17.9131326 C26.3107469,23.1803358 30.6847469,23.5187214 39.4327469,18.9282894 C37.4577401,18.9282894 35.8037849,17.6041338 35.2623809,15.8033094 C38.4805757,15.046899 40.8907469,12.1679322 40.8907469,8.72228943 L40.8907469,5.80628943 C40.8907469,5.00040423 40.2386321,4.34828943 39.4327469,4.34828943 C35.7012389,4.34828943 32.4648677,6.38365743 30.6847469,9.38130543 C28.9045289,6.38365743 25.6681577,4.34828943 21.9367469,4.34828943 C21.1308617,4.34828943 20.4787469,5.00040423 20.4787469,5.80628943 L20.4787469,8.72228943 Z" transform="scale(-1 1) rotate(-36 0 107.68)"/>
      <path stroke="#EA3546" stroke-width="1.944" d="M1.0312253,13.8128595 L1.0312253,27.9343747 C1.0312253,32.7657617 4.94783831,36.6823747 9.7792253,36.6823747 L29.8783747,36.6823747 L29.8783747,22.5608595 C29.8783747,17.7294725 25.9617617,13.8128595 21.1303747,13.8128595 L1.0312253,13.8128595 Z"/>
    </g>
    <path fill="#220C10" d="M61.1992573,28.9726 L63.5232573,20.9086 L61.8432573,15.5606 L60.2472573,15.5606 L60.2472573,15.0286 L68.9272573,15.0286 L68.9272573,15.5606 L67.2752573,15.5606 L71.4472573,28.8046 L74.8072573,15.5606 L71.9792573,15.5606 L71.9792573,15.0286 L77.5792573,15.0286 L77.5792573,15.5606 L75.7312573,15.5606 L70.5792573,34.9086 L68.0872573,34.9086 L63.9432573,22.2526 L60.3032573,34.9086 L57.8672573,34.9086 L50.8112573,15.5606 L49.4952573,15.5606 L49.4952573,15.0286 L58.5952573,15.0286 L58.5952573,15.5606 L56.6352573,15.5606 L61.1992573,28.9726 Z M78.0272573,13.6286 L84.7752573,13.6286 L84.7752573,23.8766 C85.0739254,23.017929 85.5312542,22.3272693 86.1472573,21.8046 C86.7632604,21.2819307 87.6965844,21.0206 88.9472573,21.0206 C91.8406051,21.0206 93.2872573,22.5792511 93.2872573,25.6966 L93.2872573,34.1246 L94.8552573,34.1246 L94.8552573,34.6286 L86.9312573,34.6286 L86.9312573,34.1246 L88.0792573,34.1246 L88.0792573,25.0246 C88.0792573,23.9045944 88.0045914,23.1812683 87.8552573,22.8546 C87.7059232,22.5279317 87.4352592,22.3646 87.0432573,22.3646 C86.445921,22.3646 85.9185929,22.7565961 85.4612573,23.5406 C85.0039217,24.3246039 84.7752573,25.2765944 84.7752573,26.3966 L84.7752573,34.1246 L85.9792573,34.1246 L85.9792573,34.6286 L78.0272573,34.6286 L78.0272573,34.1246 L79.5672573,34.1246 L79.5672573,14.1326 L78.0272573,14.1326 L78.0272573,13.6286 Z M101.995257,28.0486 L102.807257,28.0486 L102.807257,25.8926 C102.807257,24.1192578 102.709258,22.9292697 102.513257,22.3226 C102.317256,21.7159303 101.93926,21.4126 101.379257,21.4126 C101.043256,21.4126 100.739925,21.5012658 100.469257,21.6786 C100.198589,21.8559342 100.063257,22.0985985 100.063257,22.4066 C100.063257,22.7146015 100.119257,23.0272651 100.231257,23.3446 L100.931257,23.3446 C101.080591,23.736602 101.155257,24.2079306 101.155257,24.7586 C101.155257,25.3092694 100.921926,25.7852647 100.455257,26.1866 C99.9885883,26.5879353 99.4005942,26.7886 98.6912573,26.7886 C97.0859159,26.7886 96.2832573,26.0139411 96.2832573,24.4646 C96.2832573,22.1685885 98.2339044,21.0206 102.135257,21.0206 C104.356602,21.0206 105.89192,21.3985962 106.741257,22.1546 C107.590595,22.9106038 108.015257,24.2965899 108.015257,26.3126 L108.015257,31.9966 C108.015257,32.9672715 108.285921,33.4526 108.827257,33.4526 C109.461927,33.4526 109.835257,32.4912763 109.947257,30.5686 L110.367257,30.5966 C110.29259,32.2392749 109.984593,33.3685969 109.443257,33.9846 C108.901921,34.6006031 108.015263,34.9086 106.783257,34.9086 C104.543246,34.9086 103.255259,34.2179402 102.919257,32.8366 C102.676589,33.5459369 102.312593,34.0685983 101.827257,34.4046 C101.341922,34.7406017 100.632595,34.9086 99.6992573,34.9086 C96.9365768,34.9086 95.5552573,33.779278 95.5552573,31.5206 C95.5552573,30.19526 96.0825853,29.2852691 97.1372573,28.7906 C98.1919292,28.2959309 99.8112464,28.0486 101.995257,28.0486 Z M100.875257,31.4926 C100.875257,32.4632715 100.92659,33.0885986 101.029257,33.3686 C101.131924,33.6486014 101.327922,33.7886 101.617257,33.7886 C101.906592,33.7886 102.177256,33.5506024 102.429257,33.0746 C102.681259,32.5985976 102.807257,31.9406042 102.807257,31.1006 L102.807257,28.4966 L102.611257,28.4966 C101.453918,28.4966 100.875257,29.3459248 100.875257,31.0446 L100.875257,31.4926 Z M110.535257,13.6286 L117.395257,13.6286 L117.395257,34.1246 L118.963257,34.1246 L118.963257,34.6286 L110.647257,34.6286 L110.647257,34.1246 L112.187257,34.1246 L112.187257,14.1326 L110.535257,14.1326 L110.535257,13.6286 Z M126.859257,34.9086 C124.451245,34.9086 122.645263,34.2879395 121.441257,33.0466 C120.237251,31.8052605 119.635257,30.0786111 119.635257,27.8666 C119.635257,25.6545889 120.311917,23.9606059 121.665257,22.7846 C123.018597,21.6085941 124.74058,21.0206 126.831257,21.0206 C131.068612,21.0206 133.103258,23.1485787 132.935257,27.4046 L125.039257,27.4046 L125.039257,28.4966 C125.039257,30.3259425 125.272588,31.707262 125.739257,32.6406 C126.205926,33.573938 127.017918,34.0406 128.175257,34.0406 C130.340601,34.0406 131.759254,32.8832782 132.431257,30.5686 L132.935257,30.6526 C132.580589,31.9966067 131.941262,33.0419296 131.017257,33.7886 C130.093253,34.5352704 128.707267,34.9086 126.859257,34.9086 Z M125.067257,26.8446 L127.951257,26.8446 L127.951257,25.4726 C127.951257,23.9605924 127.862591,22.9292694 127.685257,22.3786 C127.507923,21.8279306 127.15326,21.5526 126.621257,21.5526 C126.089255,21.5526 125.697259,21.8465971 125.445257,22.4346 C125.193256,23.0226029 125.067257,24.0352595 125.067257,25.4726 L125.067257,26.8446 Z M133.943257,21.3006 L140.691257,21.3006 L140.691257,23.8766 C141.30726,21.9725905 142.665247,21.0206 144.765257,21.0206 C146.865268,21.0206 148.139255,22.0285899 148.587257,24.0446 C149.240594,22.0285899 150.61258,21.0206 152.703257,21.0206 C155.447271,21.0206 156.819257,22.5792511 156.819257,25.6966 L156.819257,34.1246 L158.387257,34.1246 L158.387257,34.6286 L150.631257,34.6286 L150.631257,34.1246 L151.611257,34.1246 L151.611257,25.0246 C151.611257,23.6059262 151.489925,22.7752679 151.247257,22.5326 C151.135257,22.4205994 150.985925,22.3646 150.799257,22.3646 C150.257921,22.3646 149.781926,22.7285964 149.371257,23.4566 C148.960589,24.1846036 148.755257,25.1085944 148.755257,26.2286 L148.755257,34.1246 L149.763257,34.1246 L149.763257,34.6286 L142.567257,34.6286 L142.567257,34.1246 L143.547257,34.1246 L143.547257,25.0246 C143.547257,23.6059262 143.425925,22.7752679 143.183257,22.5326 C143.071257,22.4205994 142.921925,22.3646 142.735257,22.3646 C142.212588,22.3646 141.741259,22.7612627 141.321257,23.5546 C140.901255,24.3479373 140.691257,25.2952612 140.691257,26.3966 L140.691257,34.1246 L141.699257,34.1246 L141.699257,34.6286 L133.943257,34.6286 L133.943257,34.1246 L135.483257,34.1246 L135.483257,21.8046 L133.943257,21.8046 L133.943257,21.3006 Z M165.527257,28.0486 L166.339257,28.0486 L166.339257,25.8926 C166.339257,24.1192578 166.241258,22.9292697 166.045257,22.3226 C165.849256,21.7159303 165.47126,21.4126 164.911257,21.4126 C164.575256,21.4126 164.271925,21.5012658 164.001257,21.6786 C163.730589,21.8559342 163.595257,22.0985985 163.595257,22.4066 C163.595257,22.7146015 163.651257,23.0272651 163.763257,23.3446 L164.463257,23.3446 C164.612591,23.736602 164.687257,24.2079306 164.687257,24.7586 C164.687257,25.3092694 164.453926,25.7852647 163.987257,26.1866 C163.520588,26.5879353 162.932594,26.7886 162.223257,26.7886 C160.617916,26.7886 159.815257,26.0139411 159.815257,24.4646 C159.815257,22.1685885 161.765904,21.0206 165.667257,21.0206 C167.888602,21.0206 169.42392,21.3985962 170.273257,22.1546 C171.122595,22.9106038 171.547257,24.2965899 171.547257,26.3126 L171.547257,31.9966 C171.547257,32.9672715 171.817921,33.4526 172.359257,33.4526 C172.993927,33.4526 173.367257,32.4912763 173.479257,30.5686 L173.899257,30.5966 C173.82459,32.2392749 173.516593,33.3685969 172.975257,33.9846 C172.433921,34.6006031 171.547263,34.9086 170.315257,34.9086 C168.075246,34.9086 166.787259,34.2179402 166.451257,32.8366 C166.208589,33.5459369 165.844593,34.0685983 165.359257,34.4046 C164.873922,34.7406017 164.164595,34.9086 163.231257,34.9086 C160.468577,34.9086 159.087257,33.779278 159.087257,31.5206 C159.087257,30.19526 159.614585,29.2852691 160.669257,28.7906 C161.723929,28.2959309 163.343246,28.0486 165.527257,28.0486 Z M164.407257,31.4926 C164.407257,32.4632715 164.45859,33.0885986 164.561257,33.3686 C164.663924,33.6486014 164.859922,33.7886 165.149257,33.7886 C165.438592,33.7886 165.709256,33.5506024 165.961257,33.0746 C166.213259,32.5985976 166.339257,31.9406042 166.339257,31.1006 L166.339257,28.4966 L166.143257,28.4966 C164.985918,28.4966 164.407257,29.3459248 164.407257,31.0446 L164.407257,31.4926 Z M183.531257,22.0846 C182.840587,22.0846 182.233927,22.5325955 181.711257,23.4286 C181.188588,24.3246045 180.927257,25.3885938 180.927257,26.6206 L180.927257,34.1246 L182.915257,34.1246 L182.915257,34.6286 L174.179257,34.6286 L174.179257,34.1246 L175.719257,34.1246 L175.719257,21.8046 L174.179257,21.8046 L174.179257,21.3006 L180.927257,21.3006 L180.927257,23.9886 C181.169925,23.0365952 181.636587,22.3039359 182.327257,21.7906 C183.017927,21.2772641 183.80192,21.0206 184.679257,21.0206 C185.556595,21.0206 186.270588,21.2679309 186.821257,21.7626 C187.371927,22.2572691 187.647257,22.9572621 187.647257,23.8626 C187.647257,24.7679379 187.441926,25.4632642 187.031257,25.9486 C186.620589,26.4339358 185.990595,26.6766 185.141257,26.6766 C184.29192,26.6766 183.666593,26.3966028 183.265257,25.8366 C182.863922,25.2765972 182.812589,24.5019383 183.111257,23.5126 L184.119257,23.5126 C184.585926,22.5605952 184.389928,22.0846 183.531257,22.0846 Z M189.439257,30.6246 L189.439257,21.8046 L187.899257,21.8046 L187.899257,21.3006 L189.439257,21.3006 L189.439257,17.6886 L194.647257,16.4006 L194.647257,21.3006 L198.287257,21.3006 L198.287257,21.8046 L194.647257,21.8046 L194.647257,31.2406 C194.647257,32.1179377 194.735923,32.7619313 194.913257,33.1726 C195.090591,33.5832687 195.459254,33.7886 196.019257,33.7886 C196.57926,33.7886 197.069255,33.5086028 197.489257,32.9486 C197.909259,32.3885972 198.18459,31.6232715 198.315257,30.6526 L198.791257,30.7086 C198.641923,31.9966064 198.231261,33.0185962 197.559257,33.7746 C196.887254,34.5306038 195.776598,34.9086 194.227257,34.9086 C192.677916,34.9086 191.492595,34.6006031 190.671257,33.9846 C189.84992,33.3685969 189.439257,32.2486081 189.439257,30.6246 Z"/>
  </g>
</svg>
