<svg xmlns="http://www.w3.org/2000/svg" xmlns:xlink="http://www.w3.org/1999/xlink" width="44" height="43" viewBox="0 0 44 43">
  <defs>
    <path id="whalemart-logo-a" d="M17.4864861,37.6543747 L17.4864861,32.6790111 C17.4864861,32.2495545 17.1383428,31.9014111 16.7088861,31.9014111 L16.7088861,31.9014111 L16.0807841,31.9014111 C12.0493357,31.9014111 10.8703006,29.9350419 9.28835658,26.7489866 C7.83205975,23.8159863 8.43514017,23.9230278 6.61098122,23.4199313 C5.75781854,23.1846321 4.6784452,22.9495155 3.37286121,22.7145816 L3.37286121,22.7145816 C3.30469049,22.7023146 3.23556255,22.6961445 3.16629693,22.6961445 C2.52213179,22.6961445 1.99993276,23.2183435 1.99993276,23.8625087 L1.99989693,23.8625087 L1.99989693,33.7628897 C0.781252477,32.1389631 0.0592253017,30.1209881 0.0592253017,27.9343747 L0.0592253017,12.7047743 L0.0592253017,12.7047743 C0.0592253017,12.1679535 0.494404525,11.7327743 1.0312253,11.7327743 L1.0312253,11.7327743 L21.1303747,11.7327743 L21.1303747,11.7327743 C26.4985825,11.7327743 30.8503747,16.0845665 30.8503747,21.4527743 L30.8503747,36.6823747 C30.8503747,37.2191955 30.4151955,37.6543747 29.8783747,37.6543747 L17.4864861,37.6543747 Z M6.09661956,20.3160354 C7.21968026,20.3160354 8.13010085,19.4056148 8.13010085,18.2825541 C8.13010085,17.1594934 7.21968026,16.2490728 6.09661956,16.2490728 C4.97355885,16.2490728 4.06313827,17.1594934 4.06313827,18.2825541 C4.06313827,19.4056148 4.97355885,20.3160354 6.09661956,20.3160354 Z"/>
    <path id="whalemart-logo-b" d="M1.0312253,12.8408595 L21.1303747,12.8408595 L21.1303747,12.8408595 C26.4985825,12.8408595 30.8503747,17.1926517 30.8503747,22.5608595 L30.8503747,36.6823747 L30.8503747,36.6823747 C30.8503747,37.2191955 30.4151955,37.6543747 29.8783747,37.6543747 L9.7792253,37.6543747 L9.7792253,37.6543747 C4.41101753,37.6543747 0.0592253017,33.3025825 0.0592253017,27.9343747 L0.0592253017,13.8128595 L0.0592253017,13.8128595 C0.0592253017,13.2760387 0.494404525,12.8408595 1.0312253,12.8408595 Z"/>
  </defs>
  <g fill="none" fill-rule="evenodd" transform="translate(.466 -.19)">
    <path fill="#EA3546" stroke="#EA3546" stroke-width="1.944" d="M18.5498193,33.9325512 L18.5498193,37.9887539 L18.5498193,37.9887539 C18.5498193,39.9619218 20.149388,41.5614905 22.122556,41.5614905 L25.3064926,41.5614905 L25.3064926,41.5614905 C25.5212209,41.5614905 25.6952926,41.3874188 25.6952926,41.1726905 L25.6952926,37.6543747 L25.6952926,37.6543747 C25.6952926,35.5517647 23.9907904,33.8472625 21.8881804,33.8472625 C21.8552794,33.8472625 21.8223797,33.847689 21.7894898,33.8485419 L18.5498193,33.9325512 Z"/>
    <use fill="#EA3546" xlink:href="#whalemart-logo-a"/>
    <path stroke="#EA3546" stroke-width="1.944" d="M18.4584861,36.6823747 L29.8783747,36.6823747 L29.8783747,21.4527743 C29.8783747,16.6213873 25.9617617,12.7047743 21.1303747,12.7047743 L1.0312253,12.7047743 L1.0312253,23.7428308 C1.09330489,22.6175163 2.02547182,21.7241445 3.16629693,21.7241445 C3.29328567,21.7241445 3.420022,21.7354565 3.54500339,21.7579463 C4.87745201,21.9977144 5.98447826,22.2388545 6.86940704,22.4829147 C7.27002195,22.5934028 7.47086673,22.6525028 7.6663208,22.7213898 C8.30709663,22.9472287 8.68729081,23.248202 8.99856202,23.8032476 C9.10971167,24.001445 9.78190343,25.5573472 10.1589479,26.3167195 C12.0018417,30.028331 13.0108506,30.9294111 16.0807841,30.9294111 L16.7088861,30.9294111 C17.6751635,30.9294111 18.4584861,31.7127337 18.4584861,32.6790111 L18.4584861,36.6823747 Z M6.09661956,21.2880354 C4.43673807,21.2880354 3.09113827,19.9424356 3.09113827,18.2825541 C3.09113827,16.6226726 4.43673807,15.2770728 6.09661956,15.2770728 C7.75650104,15.2770728 9.10210085,16.6226726 9.10210085,18.2825541 C9.10210085,19.9424356 7.75650104,21.2880354 6.09661956,21.2880354 Z"/>
    <path fill="#EA3546" d="M20.4787469,8.72228943 C20.4787469,12.2424846 22.9873817,15.187353 26.3107469,15.8647398 L26.3107469,17.9131326 C26.3107469,23.1803358 30.6847469,23.5187214 39.4327469,18.9282894 C37.4577401,18.9282894 35.8037849,17.6041338 35.2623809,15.8033094 C38.4805757,15.046899 40.8907469,12.1679322 40.8907469,8.72228943 L40.8907469,5.80628943 C40.8907469,5.00040423 40.2386321,4.34828943 39.4327469,4.34828943 C35.7012389,4.34828943 32.4648677,6.38365743 30.6847469,9.38130543 C28.9045289,6.38365743 25.6681577,4.34828943 21.9367469,4.34828943 C21.1308617,4.34828943 20.4787469,5.00040423 20.4787469,5.80628943 L20.4787469,8.72228943 Z" transform="scale(-1 1) rotate(-36 0 107.68)"/>
    <path stroke="#EA3546" stroke-width="1.944" d="M1.0312253,13.8128595 L1.0312253,27.9343747 C1.0312253,32.7657617 4.94783831,36.6823747 9.7792253,36.6823747 L29.8783747,36.6823747 L29.8783747,22.5608595 C29.8783747,17.7294725 25.9617617,13.8128595 21.1303747,13.8128595 L1.0312253,13.8128595 Z"/>
  </g>
</svg>
